/* XPM */
static char * close_xpm[] = {
"16 15 17 1",
" 	c None",
".	c #161616",
"+	c #131718",
"@	c #3C4A4B",
"#	c #394B4D",
"$	c #10181A",
"%	c #3B4A4D",
"&	c #3B4B4B",
"*	c #3E494B",
"=	c #3E4A4A",
"-	c #3F494B",
";	c #3F494A",
">	c #101918",
",	c #12171A",
"'	c #121818",
")	c #151618",
"!	c #151716",
"................",
"++++++++++++++++",
"@@@@@@@@@@@@@##$",
"###############$",
"###############$",
"###############$",
"###############$",
"###############$",
"###############$",
"###############$",
"###############$",
"%&%&%&%&%&%&###$",
"*=-;*=-;*=-;###$",
"$>,'$>,'$>,'$..$",
")!)!)!)!)!)!)!)!"};
