/* XPM */
static char * close_pressed_xpm[] = {
"16 15 10 1",
" 	c None",
".	c #161616",
"+	c #131718",
"@	c #6B7172",
"#	c #10181A",
"$	c #101918",
"%	c #12171A",
"&	c #121818",
"*	c #151618",
"=	c #151716",
"................",
"++++++++++++++++",
"@@@@@@@@@@@@@@@#",
"@@@@@@@@@@@@@@@#",
"@@@@@@@@@@@@@@@#",
"@@@@@@@@@@@@@@@#",
"@@@@@@@@@@@@@@@#",
"@@@@@@@@@@@@@@@#",
"@@@@@@@@@@@@@@@#",
"@@@@@@@@@@@@@@@#",
"@@@@@@@@@@@@@@@#",
"@@@@@@@@@@@@@@@#",
"@@@@@@@@@@@@@@@#",
"#$%&#$%&#$%&#..#",
"*=*=*=*=*=*=*=*="};
