/* XPM */
static char * stick_xpm[] = {
"16 15 7 1",
" 	c None",
".	c #161616",
"+	c #131718",
"@	c #10181A",
"#	c #687274",
"$	c #151716",
"%	c #151618",
"................",
"++++++++++++++++",
"@+++++++++++++++",
"++++++++++++++++",
"++++++++++++++++",
"+++++######+++++",
"+++++#++++#+++++",
"+++++#++++#+++++",
"+++++#++++#+++++",
"+++++#++++#+++++",
"+++++######+++++",
"++++++++++++++++",
"++++++++++++++++",
"@+++++++++++++++",
"$%$+++++++++++++"};
