/* XPM */
static char * max_xpm[] = {
"13 15 3 1",
" 	c None",
".	c #383838",
"+	c #4D6B3B",
".............",
".............",
"+++++++++++++",
"+++++++++++++",
"+++++++++++++",
"+++++++++++++",
"+++++++++++++",
"+++++++++++++",
"+++++++++++++",
"+++++++++++++",
"+++++++++++++",
"+++++++++++++",
"+++++++++++++",
".............",
"............."};
