/* XPM */
static char * max_pressed_xpm[] = {
"13 15 3 1",
" 	c None",
".	c #383838",
"+	c #627C52",
".............",
".............",
"+++++++++++++",
"+++++++++++++",
"+++++++++++++",
"+++++++++++++",
"+++++++++++++",
"+++++++++++++",
"+++++++++++++",
"+++++++++++++",
"+++++++++++++",
"+++++++++++++",
"+++++++++++++",
".............",
"............."};
