/* XPM */
static char * stick_xpm[] = {
"16 15 3 1",
" 	c None",
".	c #383838",
"+	c #6A6A6A",
"................",
"................",
"................",
"................",
"................",
".....++++++.....",
".....+....+.....",
".....+....+.....",
".....+....+.....",
".....+....+.....",
".....++++++.....",
"................",
"................",
"................",
"................"};
