/* XPM */
static char * close_xpm[] = {
"16 15 3 1",
" 	c None",
".	c #383838",
"+	c #3E5C2C",
"................",
"................",
"+++++++++++++++.",
"+++++++++++++++.",
"+++++++++++++++.",
"+++++++++++++++.",
"+++++++++++++++.",
"+++++++++++++++.",
"+++++++++++++++.",
"+++++++++++++++.",
"+++++++++++++++.",
"+++++++++++++++.",
"+++++++++++++++.",
"................",
"................"};
