/* XPM */
static char * stuck_xpm[] = {
"16 15 3 1",
" 	c None",
".	c #383838",
"+	c #9F9F9F",
"................",
"................",
"................",
"................",
"................",
".....++++++.....",
".....+....+.....",
".....+.++.+.....",
".....+.++.+.....",
".....+....+.....",
".....++++++.....",
"................",
"................",
"................",
"................"};
