/* XPM */
static char * toolbar_focused_xpm[] = {
"10 18 3 1",
" 	c None",
".	c #383838",
"+	c #617953",
"..........",
"++++++++++",
"++++++++++",
"++++++++++",
"++++++++++",
"++++++++++",
"++++++++++",
"++++++++++",
"++++++++++",
"++++++++++",
"++++++++++",
"++++++++++",
"++++++++++",
"++++++++++",
"++++++++++",
"++++++++++",
"++++++++++",
".........."};
