/* XPM */
static char * max_xpm[] = {
"13 15 13 1",
" 	c None",
".	c #161616",
"+	c #12171A",
"@	c #121818",
"#	c #4E6165",
"$	c #4E6263",
"%	c #4A6367",
"&	c #4D6265",
"*	c #516063",
"=	c #10181A",
"-	c #0F191A",
";	c #151618",
">	c #131718",
".............",
"+@+@+@+@+@+@+",
"#$#$#$#$#$#$#",
"%%%%%%%%%%%%%",
"%%%%%%%%%%%%%",
"%%%%%%%%%%%%%",
"%%%%%%%%%%%%%",
"%%%%%%%%%%%%%",
"%%%%%%%%%%%%%",
"%%%%%%%%%%%%%",
"%%%%%%%%%%%%%",
"&&&&&&&&&&&&&",
"*************",
"=-=----------",
";>;>>>>>>>>>>"};
