/* XPM */
static char * max_pressed_xpm[] = {
"13 15 9 1",
" 	c None",
".	c #161616",
"+	c #12171A",
"@	c #121818",
"#	c #6B7172",
"$	c #10181A",
"%	c #0F191A",
"&	c #151618",
"*	c #131718",
".............",
"+@+@+@+@+@+@+",
"#############",
"#############",
"#############",
"#############",
"#############",
"#############",
"#############",
"#############",
"#############",
"#############",
"#############",
"$%$%%%%%%%%%%",
"&*&**********"};
