/* XPM */
static char * stuck_xpm[] = {
"16 15 7 1",
" 	c None",
".	c #161616",
"+	c #131718",
"@	c #10181A",
"#	c #C3C3C3",
"$	c #151716",
"%	c #151618",
"................",
"++++++++++++++++",
"@+++++++++++++++",
"++++++++++++++++",
"++++++++++++++++",
"+++++######+++++",
"+++++#++++#+++++",
"+++++#+##+#+++++",
"+++++#+##+#+++++",
"+++++#++++#+++++",
"+++++######+++++",
"++++++++++++++++",
"++++++++++++++++",
"@+++++++++++++++",
"$%$+++++++++++++"};
