/* XPM */
static char * stick_xpm[] = {
"13 13 36 1",
" 	c None",
".	c #3A3A3A",
"+	c #353535",
"@	c #303030",
"#	c #181818",
"$	c #2B2B2B",
"%	c #1B707F",
"&	c #07B9D9",
"*	c #00D4FA",
"=	c #262626",
"-	c #186D7C",
";	c #01D8FF",
">	c #212121",
",	c #07B4D3",
"'	c #01D3F9",
")	c #01D5FB",
"!	c #06B5D4",
"~	c #1D1D1D",
"{	c #04B6D6",
"]	c #03BADB",
"^	c #04B9DA",
"/	c #04BBDC",
"(	c #04B8D8",
"_	c #0A89A0",
":	c #07A1BD",
"<	c #131313",
"[	c #12434C",
"}	c #0A879E",
"|	c #0E0E0E",
"1	c #141414",
"2	c #11373D",
"3	c #0E5E6C",
"4	c #0D6C7D",
"5	c #090909",
"6	c #101010",
"7	c #040404",
".............",
"+++++++++++++",
"@@@@@@#####@@",
"$$$$$#%&*&%#$",
"====#-;;;;;-#",
">>>>#,**')*!#",
"~~~~#{]^/^/(#",
"#####_:::::_#",
"<<<<#[}}}}}[#",
"|||||123432#|",
"5555556666655",
"7777777777777",
"7777777777777"};
