/* XPM */
static char * button_stick_unfocus_xpm[] = {
"13 13 33 1",
" 	c None",
".	c #3A3A3A",
"+	c #353535",
"@	c #303030",
"#	c #181818",
"$	c #2B2B2B",
"%	c #5F5F5F",
"&	c #959595",
"*	c #AAAAAA",
"=	c #262626",
"-	c #5C5C5C",
";	c #ADADAD",
">	c #212121",
",	c #919191",
"'	c #A9A9A9",
")	c #ABABAB",
"!	c #929292",
"~	c #1D1D1D",
"{	c #969696",
"]	c #949494",
"^	c #707070",
"/	c #828282",
"(	c #131313",
"_	c #393939",
":	c #6E6E6E",
"<	c #0E0E0E",
"[	c #141414",
"}	c #2F2F2F",
"|	c #4E4E4E",
"1	c #595959",
"2	c #090909",
"3	c #101010",
"4	c #040404",
".............",
"+++++++++++++",
"@@@@@@#####@@",
"$$$$$#%&*&%#$",
"====#-;;;;;-#",
">>>>#,**')*!#",
"~~~~#!&&{&{]#",
"#####^/////^#",
"((((#_:::::_#",
"<<<<<[}|1|}#<",
"2222223333322",
"4444444444444",
"4444444444444"};
