/* XPM */
static char * button_stuck_xpm[] = {
"13 13 37 1",
" 	c None",
".	c #3A3A3A",
"+	c #353535",
"@	c #303030",
"#	c #181818",
"$	c #2B2B2B",
"%	c #186A6D",
"&	c #079499",
"*	c #039DA2",
"=	c #262626",
"-	c #15686B",
";	c #039DA3",
">	c #212121",
",	c #079195",
"'	c #039A9F",
")	c #039AA0",
"!	c #069195",
"~	c #1D1D1D",
"{	c #05868B",
"]	c #05878C",
"^	c #05878B",
"/	c #096E71",
"(	c #077579",
"_	c #131313",
":	c #104042",
"<	c #096265",
"[	c #096266",
"}	c #096366",
"|	c #0E0E0E",
"1	c #141414",
"2	c #0F3435",
"3	c #0C4A4D",
"4	c #0B4F52",
"5	c #0C4B4D",
"6	c #090909",
"7	c #101010",
"8	c #040404",
".............",
"+++++++++++++",
"@@@@@@#####@@",
"$$$$$#%&*&%#$",
"====#-;;;;;-#",
">>>>#,')'))!#",
"~~~~#{]]]]]^#",
"#####/(((((/#",
"____#:<[<}<:#",
"|||||123452#|",
"6666667777766",
"8888888888888",
"8888888888888"};
