/* XPM */
static char * button_xpm[] = {
"13 13 36 1",
" 	c None",
".	c #3A3A3A",
"+	c #353535",
"@	c #303030",
"#	c #181818",
"$	c #2B2B2B",
"%	c #1B707F",
"&	c #07B9D9",
"*	c #00D4FA",
"=	c #186D7C",
"-	c #01D8FF",
";	c #262626",
">	c #06B5D4",
",	c #01D5FB",
"'	c #01D3F9",
")	c #07B4D3",
"!	c #212121",
"~	c #04B8D8",
"{	c #04BBDC",
"]	c #04B9DA",
"^	c #03BADB",
"/	c #04B6D6",
"(	c #1D1D1D",
"_	c #0A89A0",
":	c #07A1BD",
"<	c #12434C",
"[	c #0A879E",
"}	c #131313",
"|	c #0E0E0E",
"1	c #11373D",
"2	c #0E5E6C",
"3	c #0D6C7D",
"4	c #141414",
"5	c #090909",
"6	c #101010",
"7	c #040404",
".............",
"+++++++++++++",
"@@#####@@@@@@",
"$#%&*&%#$$$$$",
"#=-----=#;;;;",
"#>*,'**)#!!!!",
"#~{]{]^/#((((",
"#_:::::_#####",
"#<[[[[[<#}}}}",
"|#123214|||||",
"5566666555555",
"7777777777777",
"7777777777777"};
