/* XPM */
static char * button_unfocus_xpm[] = {
"13 13 33 1",
" 	c None",
".	c #3A3A3A",
"+	c #353535",
"@	c #303030",
"#	c #181818",
"$	c #2B2B2B",
"%	c #5F5F5F",
"&	c #959595",
"*	c #AAAAAA",
"=	c #5C5C5C",
"-	c #ADADAD",
";	c #262626",
">	c #929292",
",	c #ABABAB",
"'	c #A9A9A9",
")	c #919191",
"!	c #212121",
"~	c #949494",
"{	c #969696",
"]	c #1D1D1D",
"^	c #707070",
"/	c #828282",
"(	c #393939",
"_	c #6E6E6E",
":	c #131313",
"<	c #0E0E0E",
"[	c #2F2F2F",
"}	c #4E4E4E",
"|	c #595959",
"1	c #141414",
"2	c #090909",
"3	c #101010",
"4	c #040404",
".............",
"+++++++++++++",
"@@#####@@@@@@",
"$#%&*&%#$$$$$",
"#=-----=#;;;;",
"#>*,'**)#!!!!",
"#~{&{&&>#]]]]",
"#^/////^#####",
"#(_____(#::::",
"<#[}|}[1<<<<<",
"2233333222222",
"4444444444444",
"4444444444444"};
