/* XPM */
static char * button_stuck_unfocus_xpm[] = {
"13 13 31 1",
" 	c None",
".	c #3A3A3A",
"+	c #353535",
"@	c #303030",
"#	c #181818",
"$	c #2B2B2B",
"%	c #595959",
"&	c #767676",
"*	c #7D7D7D",
"=	c #262626",
"-	c #575757",
";	c #212121",
">	c #747474",
",	c #7A7A7A",
"'	c #1D1D1D",
")	c #6B6B6B",
"!	c #6C6C6C",
"~	c #5E5E5E",
"{	c #131313",
"]	c #363636",
"^	c #4F4F4F",
"/	c #505050",
"(	c #0E0E0E",
"_	c #141414",
":	c #2C2C2C",
"<	c #3D3D3D",
"[	c #414141",
"}	c #3E3E3E",
"|	c #090909",
"1	c #101010",
"2	c #040404",
".............",
"+++++++++++++",
"@@@@@@#####@@",
"$$$$$#%&*&%#$",
"====#-*****-#",
";;;;#>,,,,,>#",
"''''#)!!!!!!#",
"#####%~~~~~%#",
"{{{{#]^^^/^]#",
"(((((_:<[}:#(",
"||||||11111||",
"2222222222222",
"2222222222222"};
